<?xml version="1.0" standalone="no"?>
<!DOCTYPE svg PUBLIC "-//W3C//DTD SVG 20010904//EN"
 "http://www.w3.org/TR/2001/REC-SVG-20010904/DTD/svg10.dtd">
<svg version="1.0" xmlns="http://www.w3.org/2000/svg"
 width="500.000000pt" height="500.000000pt" viewBox="0 0 500.000000 500.000000"
 preserveAspectRatio="xMidYMid meet">

<g transform="translate(0.000000,500.000000) scale(0.100000,-0.100000)"
fill="#000000" stroke="none">
<path d="M1030 3420 l0 -240 340 0 340 0 0 -920 0 -920 230 0 230 0 0 921 0
921 343 -5 c371 -5 421 -11 558 -64 179 -70 306 -201 367 -378 43 -124 42
-321 -2 -450 -72 -211 -204 -347 -401 -415 -50 -17 -85 -25 -212 -46 l-33 -5
-2 442 c-3 428 -4 442 -23 453 -55 31 -144 92 -175 121 -32 29 -42 33 -115 38
-44 3 -86 3 -93 -2 -9 -6 -12 -172 -10 -767 l3 -759 215 -3 c303 -4 474 19
665 93 356 137 614 445 702 840 22 98 22 353 0 465 -48 246 -149 443 -303 591
-117 112 -262 192 -453 248 -242 72 -395 81 -1368 81 l-803 0 0 -240z"/>
</g>
</svg>
